<svg xmlns="http://www.w3.org/2000/svg" viewBox="0 0 264 40" fill="none">
  <rect width="40" height="40" rx="12" fill="#0A0A0A"/>
  <path d="M20 7l10 4.5v7c0 7-3.8 13.4-10 16-6.2-2.6-10-9-10-16v-7L20 7z" stroke="#FFFFFF" stroke-width="2.5"/>
  <path d="M15 19.5l4 4 7-8" stroke="#3B82F6" stroke-linecap="round" stroke-linejoin="round" stroke-width="2.8"/>
  <path d="M59.516 28V12.832h10.008v2.448h-7.056v3.888h6.576v2.4h-6.576v3.984h7.056V28h-10.008zm19.007.336c-1.504 0-2.832-.328-3.984-.984-1.152-.656-2.056-1.58-2.712-2.772-.656-1.208-.984-2.616-.984-4.224 0-1.608.328-3.008.984-4.2.656-1.192 1.56-2.112 2.712-2.76 1.152-.656 2.48-.984 3.984-.984 1.312 0 2.496.24 3.552.72 1.056.464 1.92 1.136 2.592 2.016l-1.896 1.8a5.145 5.145 0 0 0-1.752-1.368 4.877 4.877 0 0 0-2.208-.48c-.944 0-1.784.2-2.52.6-.72.4-1.288.968-1.704 1.704-.4.736-.6 1.628-.6 2.676 0 1.048.2 1.94.6 2.676.416.736.984 1.304 1.704 1.704.736.4 1.576.6 2.52.6.816 0 1.552-.16 2.208-.48a5.145 5.145 0 0 0 1.752-1.368l1.896 1.8c-.672.88-1.536 1.56-2.592 2.04-1.056.48-2.24.72-3.552.72zm13.304 0c-1.408 0-2.68-.328-3.816-.984-1.12-.656-2.008-1.576-2.664-2.76-.64-1.192-.96-2.6-.96-4.224 0-1.624.32-3.024.96-4.2.656-1.192 1.544-2.112 2.664-2.76 1.136-.656 2.408-.984 3.816-.984s2.672.328 3.792.984c1.136.648 2.024 1.568 2.664 2.76.656 1.176.984 2.576.984 4.2 0 1.624-.328 3.032-.984 4.224-.64 1.184-1.528 2.104-2.664 2.76-1.12.656-2.384.984-3.792.984zm0-2.592c.864 0 1.648-.2 2.352-.6a4.16 4.16 0 0 0 1.656-1.704c.416-.736.624-1.628.624-2.676 0-1.048-.208-1.94-.624-2.676a4.099 4.099 0 0 0-1.656-1.68c-.704-.416-1.488-.624-2.352-.624-.864 0-1.656.208-2.376.624a4.346 4.346 0 0 0-1.656 1.68c-.4.736-.6 1.628-.6 2.676 0 1.048.2 1.94.6 2.676a4.411 4.411 0 0 0 1.656 1.704c.72.4 1.512.6 2.376.6zm10.038 2.256V12.832h5.904c1.248 0 2.336.208 3.264.624.928.4 1.648.984 2.16 1.752.512.768.768 1.688.768 2.76 0 1.056-.256 1.968-.768 2.736-.512.752-1.232 1.336-2.16 1.752-.928.4-2.016.6-3.264.6h-2.952V28h-2.952zm2.952-7.344h2.808c1.072 0 1.888-.224 2.448-.672.576-.448.864-1.12.864-2.016 0-.912-.288-1.592-.864-2.04-.56-.448-1.376-.672-2.448-.672h-2.808v5.4zm17.835 7.344V15.28h-4.584v-2.448h12.12v2.448h-4.584V28h-2.952zm13.142.336c-1.12 0-2.192-.16-3.216-.48-1.024-.336-1.84-.768-2.448-1.296l1.008-2.256c.592.464 1.304.856 2.136 1.176.848.304 1.696.456 2.544.456 1.056 0 1.832-.168 2.328-.504.512-.336.768-.784.768-1.344 0-.416-.152-.76-.456-1.032a3.571 3.571 0 0 0-1.176-.648 16.779 16.779 0 0 0-1.944-.552 23.307 23.307 0 0 1-2.808-.816 4.752 4.752 0 0 1-1.848-1.296c-.512-.592-.768-1.384-.768-2.376 0-.832.224-1.592.672-2.28.448-.704 1.12-1.264 2.016-1.68.912-.416 2.024-.624 3.336-.624.928 0 1.84.12 2.736.36.912.224 1.696.552 2.352.984l-.912 2.256a8.226 8.226 0 0 0-2.112-.888 7.953 7.953 0 0 0-2.088-.288c-1.04 0-1.8.176-2.28.528-.48.352-.72.816-.72 1.392 0 .416.144.76.432 1.032.304.256.696.464 1.176.624.496.16 1.152.344 1.968.552 1.136.272 2.064.544 2.784.816.736.272 1.352.696 1.848 1.272.512.576.768 1.36.768 2.352 0 .816-.224 1.576-.672 2.28-.448.688-1.128 1.248-2.04 1.68-.912.416-2.032.624-3.36.624z" fill="#FFFFFF"/>
</svg>
